<svg width="125" height="81" viewBox="0 0 125 81" fill="none" xmlns="http://www.w3.org/2000/svg">
<g clip-path="url(#clip0_1630_5610)">
<path d="M124.201 34.7455C123.717 34.29 122.958 34.3136 122.501 34.7966C120.982 36.4065 119.085 36.968 116.861 36.4693C113.516 35.7193 109.927 32.5113 108.651 29.1933C111.658 28.9499 114.598 27.7916 116.96 25.9147C118.652 24.5718 120.128 22.3611 119.207 20.1819C118.565 18.6701 116.849 17.7278 115.031 17.8927C113.744 18.0065 112.449 18.6309 111.186 19.746C108.769 21.8781 107.419 24.6856 106.4 27.6423C106.329 27.7366 106.266 27.8465 106.215 27.9643C106.105 28.2078 106.066 28.4473 106.062 28.6633C105.766 29.586 105.495 30.5205 105.227 31.4472C104.802 32.9079 104.365 34.4196 103.85 35.8175C103.503 36.752 103.051 37.769 102.295 38.2009C101.697 38.5425 100.811 38.515 100.095 38.1263C98.4578 37.2428 97.4345 35.417 96.8245 33.0964C99.5834 28.4434 100.855 22.8912 101.158 21.4187L101.197 21.2224C102.224 16.2357 103.94 7.89173 102.055 2.98744C101.579 1.74665 100.229 0.611869 98.6743 0.957408C96.9898 1.33043 96.3994 3.11702 96.2066 3.70208C95.4352 6.04232 95.1085 8.46894 94.8881 10.5343C94.8172 11.2175 94.7188 12.0146 94.6047 12.9413C93.9632 18.2225 92.9596 26.4408 94.2662 32.6487C93.1839 34.3057 91.9363 35.684 90.5391 36.5517C89.0671 37.4627 87.5401 37.765 85.8831 37.4627C86.8198 35.362 87.3039 33.328 87.3315 31.4001C87.3708 28.463 86.3161 25.7497 84.4308 23.9474C82.2701 21.8821 78.9798 21.2067 76.4295 22.3061C74.8158 23.0051 73.6863 24.2145 72.6905 25.5259C72.6433 25.577 72.604 25.6319 72.5685 25.6908C72.297 26.0521 72.0372 26.4212 71.7775 26.7903C71.2186 27.5756 70.6912 28.3216 70.1008 28.9695C69.0461 30.1318 67.6843 31.0388 66.2005 31.6082C66.3737 30.3792 66.2871 29.1462 65.9014 28.0114C65.3228 26.2995 63.965 24.7877 62.2648 23.9671C60.718 23.221 59.0532 23.1032 57.5773 23.6333C56.6013 23.9828 55.8102 24.5521 55.0427 25.1019C54.7003 25.3492 54.3736 25.5809 54.047 25.7851C52.2011 26.9316 49.9302 27.3125 47.8088 26.8335C45.7937 26.378 44.3926 25.6045 43.3733 24.3676C43.1961 24.0927 43.0033 23.8296 42.7947 23.5783C41.1889 21.6347 38.8275 20.3743 36.3165 20.1151C33.8055 19.8599 31.2394 20.6177 29.2715 22.1962C27.3391 23.7472 26.1426 25.9029 24.9816 27.984C23.789 30.1279 22.6595 32.1618 20.849 33.3202C20.8648 33.2495 20.8766 33.1788 20.8923 33.1042C21.3174 30.8778 21.1403 28.4041 20.3689 25.7497C17.9209 17.3312 10.4508 10.8013 1.78042 9.50162C1.43014 9.45058 1.07592 9.55267 0.808293 9.78434C0.564277 10.016 0.414719 10.3498 0.418655 10.7032C0.560341 20.547 1.51672 30.4498 3.26025 40.1406C3.36652 40.7218 3.87029 41.1301 4.44098 41.1301C4.51182 41.1301 4.58266 41.1223 4.6535 41.1105C5.30684 40.9927 5.7437 40.3684 5.62563 39.7166C3.99624 30.6383 3.06347 21.3677 2.85094 12.1402C9.90771 13.7658 16.0553 19.4594 18.0744 26.4173C18.7395 28.7064 18.8969 30.8032 18.5466 32.6566C18.4364 33.2377 18.2711 33.7992 18.0586 34.3254C17.0353 34.4942 15.9412 34.5335 14.8156 34.5727C13.2255 34.6277 11.5843 34.6866 9.98249 35.1185C8.32948 35.5622 7.34555 36.6342 7.41245 37.9143C7.45968 38.8449 8.07366 39.6655 9.1363 40.2231C11.4938 41.456 14.544 41.2047 16.8976 39.5791C18.0389 38.7899 18.9993 37.7022 19.7156 36.4182C20.3492 36.2415 20.975 36.002 21.585 35.68C23.7694 34.5138 25.1272 32.582 26.3118 30.5519C26.7172 33.5322 28.1695 36.3829 30.3499 37.7886C34.1597 40.2466 39.6855 39.4535 42.6727 36.0256C44.4674 33.9641 45.1916 31.0938 44.8413 28.3766C45.5812 28.7064 46.3959 28.9735 47.2972 29.1737C49.269 29.6174 51.3431 29.4839 53.2401 28.8203C52.941 30.1514 52.8387 31.5139 52.7757 32.7783C52.1657 44.8525 52.8348 57.0249 54.7633 68.9577C54.8577 69.5467 55.3694 69.9668 55.9479 69.9668C56.0109 69.9668 56.0778 69.9629 56.1408 69.9511C56.798 69.8451 57.2428 69.2287 57.1365 68.5769C55.2356 56.8089 54.5744 44.8054 55.1765 32.9C55.2749 30.9524 55.4638 28.7496 56.4399 27.0691C56.4478 27.0612 56.4556 27.0573 56.4674 27.0494C57.1287 26.5782 57.7505 26.1306 58.4117 25.8911C59.2776 25.5809 60.2812 25.6634 61.2376 26.1267C62.3671 26.6725 63.2684 27.662 63.6423 28.7732C64.0044 29.8452 63.9847 31.0545 63.6384 32.2247C63.4455 32.2443 63.2526 32.26 63.0598 32.2679C62.804 32.2796 62.5482 32.2796 62.2923 32.2796C61.3674 32.2836 60.3166 32.2914 59.3012 32.688C58.2346 33.1042 57.353 34.0387 57.0499 35.0714C56.798 35.9274 56.9437 36.7873 57.4592 37.4941C58.0142 38.2559 58.947 38.7153 59.9545 38.7271C59.9663 38.7271 59.9821 38.7271 59.9939 38.7271C61.1825 38.7271 62.3081 38.1852 63.4376 37.07C64.2405 36.2729 64.8899 35.3541 65.3661 34.3725C67.6528 33.8581 69.782 32.6998 71.4547 31.0428C69.9119 41.3539 71.1595 51.7554 72.2812 61.0889L74.5325 79.8382C74.6072 80.4469 75.1268 80.8945 75.725 80.8945C75.7722 80.8945 75.8195 80.8906 75.8706 80.8866C76.5318 80.8081 77.0002 80.2113 76.9215 79.5516L74.6702 60.7983C73.399 50.2358 71.9624 38.2755 74.7096 26.861C75.4967 25.8401 76.3311 24.9644 77.4016 24.5011C79.0861 23.7747 81.298 24.2576 82.7818 25.6751C84.1868 27.018 84.974 29.0913 84.9425 31.3608C84.9189 33.0335 84.4623 34.8358 83.5886 36.7324C82.7818 36.4339 81.9434 36.1512 81.0067 36.0806C79.6647 35.9785 78.2517 36.5085 77.4134 37.4313C76.7483 38.1616 76.4728 39.0883 76.6381 40.0385C76.9175 41.6366 78.3659 42.795 80.0504 42.795C80.1133 42.795 80.1763 42.795 80.2432 42.7911C82.4787 42.6772 83.8641 41.1223 84.7654 39.6616C87.2685 40.3055 89.6457 39.9404 91.834 38.5818C93.0816 37.8082 94.1796 36.7598 95.1478 35.5583C95.9704 37.6237 97.1944 39.2728 98.9655 40.2349C100.434 41.028 102.173 41.0477 103.511 40.282C104.936 39.4692 105.633 37.9849 106.125 36.646C106.656 35.2049 107.097 33.6893 107.522 32.2247C109.525 35.3895 112.985 38.0556 116.346 38.8095C119.368 39.4849 122.178 38.6446 124.26 36.4379C124.709 35.9588 124.686 35.201 124.201 34.7455ZM112.784 21.5444C113.654 20.7748 114.484 20.3507 115.248 20.284C115.307 20.28 115.366 20.2761 115.425 20.2761C116.113 20.2761 116.783 20.6256 116.991 21.1203C117.365 22.0038 116.495 23.225 115.464 24.0417C113.701 25.4395 111.556 26.3662 109.324 26.7039C110.151 24.7171 111.206 22.9383 112.784 21.5444ZM15.5319 37.6041C13.9261 38.7113 11.8047 38.9077 10.2541 38.0988C10.0297 37.981 9.90377 37.8711 9.84474 37.8043C9.951 37.7022 10.2147 37.5412 10.6083 37.4352C11.9425 37.074 13.379 37.0229 14.9022 36.9719C15.3902 36.9562 15.8782 36.9365 16.3702 36.9091C16.1104 37.1643 15.8271 37.3999 15.5319 37.6041ZM40.8544 34.4471C38.6622 36.964 34.447 37.5726 31.6566 35.7704C28.9881 34.0505 27.7602 28.9106 29.2322 25.7026C29.7005 25.0901 30.2122 24.5325 30.7986 24.0613C32.2784 22.8755 34.2069 22.3061 36.0921 22.4985C37.9616 22.6909 39.7248 23.6255 40.9292 25.0665C41.0905 25.31 41.2558 25.5456 41.4369 25.7694C43.0859 28.3884 42.8892 32.1147 40.8544 34.4471ZM61.7413 35.362C61.0841 36.0099 60.5134 36.3279 59.9899 36.3279C59.986 36.3279 59.9821 36.3279 59.9781 36.3279C59.7341 36.324 59.5137 36.2337 59.4074 36.0845C59.3445 35.9981 59.313 35.9078 59.3602 35.7468C59.4547 35.4209 59.8089 35.0675 60.1788 34.9222C60.7771 34.6866 61.5209 34.6827 62.3041 34.6788C62.3199 34.6788 62.3396 34.6788 62.3553 34.6788C62.1664 34.9144 61.9617 35.146 61.7413 35.362ZM80.1094 40.3998C79.645 40.4273 79.094 40.1642 79.0035 39.638C78.9759 39.4888 78.9759 39.2886 79.1884 39.053C79.5033 38.7074 80.1094 38.4718 80.6722 38.4718C80.7234 38.4718 80.7706 38.4758 80.8218 38.4758C81.3373 38.515 81.8608 38.6682 82.4039 38.8566C81.6837 39.8736 80.9516 40.3566 80.1094 40.3998ZM97.0094 13.2279C97.1236 12.2934 97.222 11.4845 97.2967 10.7856C97.5014 8.84589 97.8045 6.57633 98.5089 4.45205C98.8474 3.43115 99.1544 3.31335 99.2135 3.30157C99.2213 3.30157 99.2331 3.29764 99.241 3.29764C99.3984 3.29764 99.6975 3.52146 99.8235 3.84736C101.457 8.09591 99.7645 16.322 98.8553 20.7394L98.8159 20.9397C98.2925 23.4841 97.4109 26.4251 96.1947 29.1187C95.7343 23.7001 96.5214 17.233 97.0094 13.2279Z" fill="#FAFAFA"/>
</g>
<defs>
<clipPath id="clip0_1630_5610">
<rect width="125" height="80" fill="white" transform="translate(0 0.894531)"/>
</clipPath>
</defs>
</svg>
